<?xml version="1.0" encoding="UTF-8" standalone="no"?>
<!DOCTYPE svg PUBLIC "-//W3C//DTD SVG 1.1//EN" "http://www.w3.org/Graphics/SVG/1.1/DTD/svg11.dtd">
<svg width="100%" height="100%" viewBox="0 0 32 32" version="1.1" xmlns="http://www.w3.org/2000/svg" xmlns:xlink="http://www.w3.org/1999/xlink" xml:space="preserve" style="fill-rule:evenodd;clip-rule:evenodd;stroke-linecap:round;stroke-linejoin:round;stroke-miterlimit:1.5;">
    <g id="path4109" transform="matrix(0.0526686,-0.0374817,0.0333355,0.0573977,-21.5191,11.4123)">
        <path d="M372.25,62.425C372.18,66.942 372.159,71.454 372.125,75.975L372.1,77.875L370.2,77.95C365.692,78.098 361.163,78.149 356.625,78.175C356.379,124.077 356.515,169.959 356.5,215.85L356.5,217.825L354.525,217.85C350.715,217.89 346.882,217.926 343.05,218.025L340.975,218.075L341,216C341.079,211.515 341.045,207.034 340.95,202.575C325.38,202.445 309.795,202.365 294.225,202.625C294.245,218.135 294.195,233.64 294.225,249.15C298.739,249.237 303.306,249.448 307.875,249.125L310.375,248.95L310,251.425C309.346,255.904 309.783,260.436 309.8,264.925C314.108,265.151 318.445,265.193 322.8,265.2L324.65,265.2L324.8,267.05C325.523,276.638 325.165,286.266 325.325,295.9C329.799,296.083 334.303,296.156 338.8,296.2L340.75,296.225L340.775,298.175C340.847,307.794 340.825,317.408 340.975,327.025C345.491,327.097 350.039,327.326 354.6,327.05L356.9,326.925L356.725,329.2C355.966,338.815 356.624,348.509 356.55,358.15C360.948,358.237 365.342,358.299 369.75,358.325L371.725,358.325L371.75,360.3C371.944,375.151 371.848,390.015 372.05,404.875C397.69,405.245 423.35,405.28 449,405.25C475.26,405.21 501.515,405.43 527.775,404.8C527.355,389.986 528.682,375.179 528.075,360.375L528,358.25L530.125,358.3C534.532,358.424 538.947,358.337 543.325,358.2C543.488,343.466 543.506,328.711 543.525,313.975L543.525,312.15L545.325,311.975C549.801,311.547 554.314,311.515 558.85,311.55C558.96,295.046 558.652,278.553 559.15,262.05L559.15,262L559.15,261.95C558.602,242.127 558.99,222.284 558.75,202.45C554.302,202.485 549.865,202.438 545.45,202.375L543.525,202.35L543.475,200.425C543.386,196.051 543.33,191.651 543.4,187.25C538.836,187.117 534.3,187.26 529.775,187L528.025,186.9L527.9,185.15C527.579,180.602 527.737,176.008 527.675,171.4C518,171.363 508.333,171.441 498.675,171.3L496.725,171.275L496.7,169.325C496.625,164.958 496.573,160.589 496.625,156.2C481.783,155.414 466.9,155.923 452.05,155.75L450.15,155.725L450.075,153.85C449.872,149.352 449.79,144.842 449.8,140.3C440.144,140.253 430.493,140.331 420.85,140.125L418.925,140.075L418.9,138.15C418.709,118.17 418.818,98.183 418.75,78.2C416.175,78.175 413.6,78.155 411.025,78.15C409.105,78.146 407.193,78.155 405.275,78.175L403.225,78.2L403.25,76.15C403.319,71.564 403.311,66.977 402.875,62.425C392.665,62.455 382.46,62.485 372.25,62.425L372.25,62.425Z" style="fill:white;fill-rule:nonzero;"/>
    </g>
    <g id="path3016" transform="matrix(0.0526686,-0.0374817,0.0333355,0.0573977,-21.5253,11.4119)">
        <path d="M372.24,62.42C382.45,62.48 392.66,62.46 402.87,62.43C403.36,67.55 403.34,72.7 403.24,77.83C392.86,77.93 382.49,77.8 372.11,77.93C372.15,72.76 372.16,67.59 372.24,62.42L372.24,62.42Z" style="fill:rgb(28,28,28);fill-rule:nonzero;"/>
    </g>
    <g id="path3018" transform="matrix(0.0526686,-0.0374817,0.0333355,0.0573977,-21.5253,11.4119)">
        <path d="M356.62,78.17C361.78,78.14 366.95,78.15 372.11,77.93C372.12,135.02 372.21,192.11 372.15,249.2C366.95,249.32 361.75,249.32 356.55,249.21C356.45,244.1 356.45,238.98 356.52,233.86C351.35,233.66 346.18,233.69 341.01,233.71C340.84,228.49 340.8,223.26 341,218.04C346.16,217.85 351.33,217.91 356.5,217.83C356.52,171.28 356.37,124.73 356.62,78.17L356.62,78.17Z" style="fill:rgb(28,28,28);fill-rule:nonzero;"/>
    </g>
    <g id="path3020" transform="matrix(0.0526686,-0.0374817,0.0333355,0.0573977,-21.5253,11.4119)">
        <path d="M403.3,78.19C408.45,78.12 413.6,78.15 418.75,78.2C418.82,98.84 418.68,119.49 418.9,140.13C429.2,140.4 439.5,140.25 449.8,140.3C449.79,145.45 449.8,150.6 450.1,155.75C465.6,156 481.13,155.38 496.62,156.2C496.56,161.23 496.59,166.26 496.7,171.29C507.02,171.48 517.35,171.36 527.68,171.4C527.75,176.57 527.42,181.77 527.97,186.92C533.1,187.37 538.25,187.1 543.39,187.25C543.31,192.29 543.35,197.33 543.48,202.37C548.56,202.46 553.65,202.5 558.75,202.46C558.99,222.31 558.6,242.16 559.15,262C558.65,278.52 558.95,295.04 558.84,311.56C553.72,311.52 548.6,311.5 543.52,312.13C543.5,327.48 543.49,342.84 543.32,358.19C538.22,358.35 533.11,358.52 528.02,358.27C527.44,342.65 527.71,327.01 527.86,311.38C532.99,311.43 538.13,311.43 543.27,311.39C543.28,275.09 543.31,238.8 543.33,202.5C538.2,202.43 533.07,202.44 527.94,202.5C527.65,197.45 527.98,192.37 527.57,187.33C522.48,186.35 517.28,186.95 512.14,186.93C512.03,202.5 512.32,218.07 512.01,233.65C506.93,233.66 501.84,233.66 496.76,233.67C496.41,212.9 496.77,192.13 496.64,171.36C486.23,171.3 475.82,171.33 465.42,171.36C465.42,186.92 465.58,202.48 465.4,218.03C460.24,218.14 455.09,218.14 449.94,218.04C449.84,197.29 449.82,176.53 450.07,155.78C439.65,155.73 429.24,155.72 418.82,155.84C418.71,176.57 418.9,197.3 418.82,218.03C413.61,218.18 408.39,218.19 403.18,218.04C403.18,171.43 403.21,124.81 403.3,78.19L403.3,78.19Z" style="fill:rgb(28,28,28);fill-rule:nonzero;"/>
    </g>
    <g id="path3026" transform="matrix(0.0526686,-0.0374817,0.0333355,0.0573977,-21.5253,11.4119)">
        <path d="M294.23,202.62C309.8,202.36 325.38,202.44 340.95,202.57C341.06,207.73 341.15,212.88 341,218.04C330.67,218.28 320.34,218.1 310.02,218.18C309.64,228.46 310.57,238.77 309.87,249.04C304.67,249.64 299.43,249.24 294.22,249.14C294.19,233.63 294.25,218.13 294.23,202.62L294.23,202.62Z" style="fill:rgb(28,28,28);fill-rule:nonzero;"/>
    </g>
    <g id="path3030" transform="matrix(0.0526686,-0.0374817,0.0333355,0.0573977,-21.5253,11.4119)">
        <path d="M310.29,249.39C315.29,248.62 320.37,248.91 325.41,249.05C325.52,254.24 325.53,259.44 325.48,264.64C330.68,264.67 335.87,264.66 341.07,264.73C341.19,275.08 341.07,285.43 341.13,295.78C346.26,295.75 351.4,295.76 356.54,295.83C356.47,306.21 357.21,316.67 356.15,327C351.09,327.46 346.02,327.1 340.97,327.02C340.81,316.76 340.83,306.5 340.74,296.24C335.6,296.21 330.46,296.12 325.32,295.91C325.15,285.69 325.65,275.45 324.72,265.26C319.75,265.28 314.77,265.19 309.81,264.93C309.79,259.75 309.11,254.49 310.29,249.39L310.29,249.39Z" style="fill:rgb(28,28,28);fill-rule:nonzero;"/>
    </g>
    <g id="path3038" transform="matrix(0.0526686,-0.0374817,0.0333355,0.0573977,-21.5253,11.4119)">
        <path d="M356.86,327.07C361.94,326.67 367.05,326.91 372.15,326.94C372.29,337.27 372.16,347.6 372.19,357.92C377.37,357.9 382.57,357.9 387.76,358.08C387.86,368.41 387.67,378.75 387.82,389.08C429.23,389.18 470.64,389.16 512.05,389.14C512.21,378.8 512.01,368.46 512.12,358.11C517.42,358.04 522.72,357.97 528.02,358.27C528.86,373.77 527.34,389.28 527.78,404.8C501.52,405.43 475.26,405.2 449,405.24C423.35,405.27 397.7,405.24 372.06,404.87C371.85,389.36 371.96,373.85 371.73,358.35C366.67,358.34 361.61,358.26 356.55,358.16C356.63,347.8 355.8,337.37 356.86,327.07L356.86,327.07Z" style="fill:rgb(28,28,28);fill-rule:nonzero;"/>
    </g>
    <g transform="matrix(1.19369,0,0,1.07058,-8.07464,-1.091)">
        <rect x="15.59" y="18.866" width="9.426" height="6.544" style="fill:rgb(235,235,235);fill-opacity:0;stroke:rgb(127,127,127);stroke-width:1.32px;"/>
    </g>
    <g transform="matrix(0.828122,0,0,0.781866,5.44469,-4.84928)">
        <rect x="18.019" y="22.232" width="9.953" height="2.009" style="fill:rgb(127,127,127);"/>
    </g>
    <g transform="matrix(5.0998e-17,-0.781866,0.828122,4.81494e-17,5.14793,31.3744)">
        <rect x="18.019" y="22.232" width="9.953" height="2.009" style="fill:rgb(127,127,127);"/>
    </g>
</svg>
