<?xml version="1.0" encoding="UTF-8" standalone="no"?>
<!DOCTYPE svg PUBLIC "-//W3C//DTD SVG 1.1//EN" "http://www.w3.org/Graphics/SVG/1.1/DTD/svg11.dtd">
<svg width="100%" height="100%" viewBox="0 0 48 48" version="1.1" xmlns="http://www.w3.org/2000/svg" xmlns:xlink="http://www.w3.org/1999/xlink" xml:space="preserve" style="fill-rule:evenodd;clip-rule:evenodd;stroke-linejoin:round;stroke-miterlimit:1.41421;">
    <g transform="matrix(1,0,0,1,12,12)">
        <g transform="matrix(1.01053,0,0,1.00735,-0.0757895,-0.176285)">
            <path d="M16.9,7.1C16.5,6.7 15.9,6.7 15.5,7.1L7.1,15.5C6.7,15.9 6.7,16.5 7.1,16.9C7.5,17.3 8.1,17.3 8.5,16.9L16.9,8.5C17.3,8.1 17.3,7.5 16.9,7.1Z" style="fill:rgb(110,110,110);fill-rule:nonzero;"/>
        </g>
        <g transform="matrix(1.01053,0,0,1.00735,-0.0757895,-0.176285)">
            <path d="M8.5,22.5L12,19C13.4,17.6 13.8,15.5 13.1,13.7L11.4,15.4C11.4,16.2 11.2,17 10.5,17.7L7,21.2C5.8,22.4 3.9,22.4 2.8,21.2C1.6,20 1.6,18.1 2.8,17L6.3,13.5C6.9,12.9 7.8,12.6 8.6,12.6L10.3,10.9C8.5,10.2 6.4,10.5 5,12L1.5,15.5C-0.4,17.4 -0.4,20.6 1.5,22.5C3.4,24.5 6.6,24.5 8.5,22.5Z" style="fill:rgb(110,110,110);fill-rule:nonzero;"/>
        </g>
        <g transform="matrix(1.01053,0,0,1.00735,-0.0757895,-0.176285)">
            <path d="M13.4,6.4L16.9,2.9C18.1,1.7 20,1.7 21.1,2.9C22.2,4.1 22.3,6 21.1,7.1L17.6,10.6C17,11.2 16.1,11.5 15.3,11.5L13.6,13.2C15.4,13.9 17.5,13.5 18.9,12.1L22.4,8.6C24.3,6.7 24.3,3.5 22.4,1.6C20.5,-0.3 17.3,-0.3 15.4,1.6L12,5C10.6,6.4 10.2,8.5 10.9,10.3L12.6,8.6C12.5,7.8 12.8,7 13.4,6.4Z" style="fill:rgb(110,110,110);fill-rule:nonzero;"/>
        </g>
    </g>
</svg>
