<?xml version="1.0" encoding="UTF-8" standalone="no"?>
<!DOCTYPE svg PUBLIC "-//W3C//DTD SVG 1.1//EN" "http://www.w3.org/Graphics/SVG/1.1/DTD/svg11.dtd">
<svg width="100%" height="100%" viewBox="0 0 32 32" version="1.1" xmlns="http://www.w3.org/2000/svg" xmlns:xlink="http://www.w3.org/1999/xlink" xml:space="preserve" style="fill-rule:evenodd;clip-rule:evenodd;stroke-linecap:round;stroke-linejoin:round;stroke-miterlimit:1.5;">
    <g transform="matrix(0.965268,0,0,1,0.431097,0.355187)">
        <rect x="3.711" y="3.722" width="24.864" height="23.961" style="fill:white;fill-opacity:0;stroke:white;stroke-width:1.53px;"/>
    </g>
    <g transform="matrix(1.06134,0,0,1,-0.455101,0)">
        <g id="stop1" transform="matrix(0.450937,0,0,0.178928,10.7095,20.59)">
            <rect x="4" y="4" width="24" height="24" style="fill:rgb(124,76,120);"/>
        </g>
        <g id="stop" transform="matrix(0.213991,0,0,0.178928,6.56328,20.554)">
            <rect x="4" y="4" width="24" height="24" style="fill:rgb(191,179,191);"/>
        </g>
    </g>
    <g transform="matrix(1.04342,0,0,1,-0.323457,0)">
        <g id="stop2" transform="matrix(0.213991,0,0,0.178928,6.59388,6.06869)">
            <rect x="4" y="4" width="24" height="24" style="fill:rgb(251,0,251);"/>
        </g>
        <g id="stop11" transform="matrix(0.417655,0,0,0.178928,10.8733,6.09145)">
            <rect x="4" y="4" width="24" height="24" style="fill:rgb(222,193,219);"/>
        </g>
    </g>
    <g transform="matrix(1.01855,0,0,1,-0.137631,0)">
        <g id="stop3" transform="matrix(0.213991,0,0,0.178928,6.56328,13.866)">
            <rect x="4" y="4" width="24" height="24" style="fill:rgb(191,179,191);"/>
        </g>
        <g id="stop12" transform="matrix(0.500409,0,0,0.178928,10.5117,13.8887)">
            <rect x="4" y="4" width="24" height="24" style="fill:rgb(188,150,184);"/>
        </g>
    </g>
    <g transform="matrix(5.1871,0,0,0.929505,-27.3887,1.77782)">
        <path d="M6.716,6.314L6.71,25.307" style="fill:none;stroke:white;stroke-width:0.67px;"/>
    </g>
    <g transform="matrix(0.899934,0,0,-3.59374,0.660767,51.6168)">
        <path d="M7.544,11.28L12.424,11.271" style="fill:none;stroke:white;stroke-width:0.76px;"/>
    </g>
    <g transform="matrix(0.891868,0,0,1,0.782647,7.47447)">
        <path d="M7.441,11.21L12.373,11.256" style="fill:none;stroke:white;stroke-width:2.11px;"/>
    </g>
    <g transform="matrix(0.929202,0,0,-0.316336,0.461115,28.8559)">
        <path d="M7.488,11.239L12.373,11.256" style="fill:none;stroke:white;stroke-width:2.88px;"/>
    </g>
</svg>
