<?xml version="1.0" encoding="UTF-8" standalone="no"?>
<!DOCTYPE svg PUBLIC "-//W3C//DTD SVG 1.1//EN" "http://www.w3.org/Graphics/SVG/1.1/DTD/svg11.dtd">
<svg width="100%" height="100%" viewBox="0 0 32 32" version="1.1" xmlns="http://www.w3.org/2000/svg" xmlns:xlink="http://www.w3.org/1999/xlink" xml:space="preserve" style="fill-rule:evenodd;clip-rule:evenodd;stroke-linejoin:round;stroke-miterlimit:1.41421;">
    <g id="background" transform="matrix(0.503927,0,0,0.536785,7,6.4)">
        <rect x="0" y="0" width="32" height="32" style="fill:none;"/>
    </g>
    <g id="stop" transform="matrix(0.213991,0,0,0.178928,5.43987,5.79553)">
        <rect x="4" y="4" width="24" height="24" style="fill:rgb(251,0,251);"/>
    </g>
    <g id="stop1" transform="matrix(0.246525,0,0,0.178928,10.4038,5.81829)">
        <rect x="4" y="4" width="24" height="24" style="fill:rgb(222,193,219);"/>
    </g>
    <g id="stop2" transform="matrix(0.213991,0,0,0.178928,5.40926,10.5928)">
        <rect x="4" y="4" width="24" height="24" style="fill:rgb(191,179,191);"/>
    </g>
    <g id="stop11" transform="matrix(0.401416,0,0,0.178928,9.75361,10.6156)">
        <rect x="4" y="4" width="24" height="24" style="fill:rgb(188,150,184);"/>
    </g>
    <g id="stop3" transform="matrix(0.213991,0,0,0.178928,5.40926,15.4341)">
        <rect x="4" y="4" width="24" height="24" style="fill:rgb(191,179,191);"/>
    </g>
    <g id="stop12" transform="matrix(0.34773,0,0,0.178928,9.96835,15.4701)">
        <rect x="4" y="4" width="24" height="24" style="fill:rgb(148,102,143);"/>
    </g>
    <g id="stop4" transform="matrix(0.213991,0,0,0.178928,5.40926,20.2808)">
        <rect x="4" y="4" width="24" height="24" style="fill:rgb(191,179,191);"/>
    </g>
    <g id="stop13" transform="matrix(0.289885,0,0,0.178928,10.1997,20.3168)">
        <rect x="4" y="4" width="24" height="24" style="fill:rgb(124,76,120);"/>
    </g>
    <g transform="matrix(0.828122,0,0,0.781866,4.0814,3.56382)">
        <rect x="18.019" y="22.232" width="9.953" height="2.009" style="fill:rgb(127,127,127);"/>
    </g>
    <g transform="matrix(5.0998e-17,-0.781866,0.828122,4.81494e-17,3.78464,39.7875)">
        <rect x="18.019" y="22.232" width="9.953" height="2.009" style="fill:rgb(127,127,127);"/>
    </g>
</svg>
