<?xml version="1.0" encoding="UTF-8" standalone="no"?>
<!DOCTYPE svg PUBLIC "-//W3C//DTD SVG 1.1//EN" "http://www.w3.org/Graphics/SVG/1.1/DTD/svg11.dtd">
<svg width="100%" height="100%" viewBox="0 0 32 32" version="1.1" xmlns="http://www.w3.org/2000/svg" xmlns:xlink="http://www.w3.org/1999/xlink" xml:space="preserve" style="fill-rule:evenodd;clip-rule:evenodd;stroke-linecap:round;stroke-linejoin:round;stroke-miterlimit:1.5;">
    <g transform="matrix(1.06933,0,0,0.927278,-1.31776,0.652006)">
        <rect x="7.462" y="6.779" width="17.301" height="18.841" style="fill:rgb(103,103,103);"/>
    </g>
    <g transform="matrix(1,0,0,1.20852,0,-1.87664)">
        <path d="M6.662,13.796L11,11L16,9L21,9L25,12" style="fill:none;stroke:rgb(133,197,167);stroke-width:1.35px;"/>
    </g>
    <g transform="matrix(1.04762,0,0,1.10986,-0.960502,-0.240153)">
        <path d="M7.292,16.204C7.286,16.258 10.659,18.033 10.6,18.038C10.447,18.05 13.643,12.169 13.553,12.094C13.471,12.026 15.638,14.175 15.666,14.151C15.737,14.094 17.382,17.949 17.448,17.993C17.513,18.036 18.6,13.741 18.568,13.806C18.475,13.991 19.852,9.833 19.727,9.8C19.7,9.793 21.097,13.704 21.168,13.786C21.194,13.817 22.656,12.452 22.672,12.403C22.676,12.391 25.017,17.408 24.911,17.505" style="fill:rgb(102,98,98);fill-opacity:0;"/>
        <path d="M7.445,15.544L7.513,15.561L7.579,15.585L7.642,15.614L7.701,15.65L7.757,15.69L7.759,15.692L7.763,15.695L7.813,15.725L7.883,15.765L7.967,15.813L8.177,15.93L8.428,16.068L8.709,16.221L9.322,16.553L9.934,16.883L10.253,17.056L10.263,17.036L10.363,16.835L10.472,16.618L10.591,16.386L10.847,15.887L11.124,15.353L11.41,14.801L11.697,14.249L11.975,13.714L12.233,13.213L12.352,12.982L12.462,12.765L12.563,12.565L12.652,12.386L12.728,12.23L12.79,12.1L12.837,11.998L12.846,11.976L12.857,11.925L12.878,11.861L12.905,11.8L12.939,11.741L12.978,11.686L13.024,11.635L13.074,11.588L13.129,11.546L13.188,11.51L13.25,11.479L13.316,11.454L13.383,11.435L13.453,11.423L13.523,11.417L13.594,11.418L13.664,11.425L13.733,11.439L13.8,11.459L13.865,11.485L13.927,11.517L13.985,11.555L13.987,11.557L14.036,11.596L14.082,11.638L14.1,11.659L14.143,11.703L14.365,11.925L14.696,12.255L15.085,12.638L15.478,13.022L15.659,13.199L15.822,13.355L15.959,13.485L16.062,13.582L16.081,13.598L16.104,13.613L16.15,13.649L16.157,13.655L16.205,13.701L16.249,13.75L16.275,13.783L16.31,13.835L16.336,13.877L16.36,13.92L16.403,14L16.451,14.094L16.503,14.2L16.559,14.318L16.621,14.449L16.755,14.74L16.902,15.065L17.058,15.413L17.219,15.772L17.294,15.941L17.349,15.73L17.451,15.336L17.549,14.955L17.639,14.6L17.719,14.284L17.785,14.019L17.833,13.82L17.851,13.744L17.852,13.733L17.853,13.727L17.863,13.666L17.869,13.64L17.885,13.578L17.907,13.506L17.963,13.319L18.041,13.071L18.24,12.436L18.354,12.073L18.472,11.695L18.59,11.315L18.702,10.946L18.805,10.6L18.851,10.441L18.894,10.293L18.931,10.157L18.963,10.037L18.989,9.934L19.009,9.851L19.012,9.832L19.011,9.808L19.014,9.741L19.014,9.738L19.024,9.674L19.04,9.611L19.062,9.549L19.091,9.49L19.126,9.434L19.166,9.381L19.211,9.332L19.261,9.287L19.316,9.247L19.374,9.212L19.436,9.183L19.5,9.159L19.566,9.141L19.634,9.13L19.703,9.125L19.772,9.126L19.841,9.133L19.908,9.146L19.974,9.166L20.037,9.191L20.098,9.222L20.101,9.224L20.153,9.257L20.202,9.294L20.248,9.335L20.289,9.379L20.326,9.427L20.328,9.43L20.361,9.481L20.388,9.535L20.411,9.59L20.413,9.595L20.428,9.645L20.439,9.696L20.461,9.763L20.525,9.949L20.611,10.197L20.714,10.491L20.831,10.822L20.957,11.176L21.089,11.543L21.221,11.91L21.351,12.267L21.471,12.597L21.559,12.515L21.691,12.392L21.814,12.275L21.923,12.171L22.014,12.082L22.08,12.017L22.105,11.991L22.11,11.985L22.155,11.937L22.204,11.892L22.258,11.852L22.316,11.817L22.377,11.788L22.44,11.764L22.506,11.746L22.573,11.734L22.641,11.728L22.71,11.728L22.778,11.735L22.845,11.747L22.911,11.766L22.974,11.79L23.035,11.82L23.092,11.856L23.146,11.896L23.195,11.941L23.239,11.99L23.278,12.043L23.312,12.1L23.325,12.124L23.351,12.178L23.428,12.34L23.545,12.588L23.694,12.91L23.871,13.291L24.067,13.718L24.276,14.175L24.491,14.648L24.705,15.122L24.911,15.584L25.009,15.806L25.102,16.02L25.19,16.223L25.272,16.415L25.346,16.593L25.413,16.757L25.472,16.904L25.522,17.034L25.544,17.096L25.564,17.154L25.582,17.21L25.598,17.267L25.614,17.331L25.621,17.376L25.629,17.439L25.629,17.447L25.631,17.482L25.63,17.517L25.63,17.524L25.625,17.583L25.614,17.642L25.613,17.647L25.598,17.701L25.578,17.753L25.554,17.803L25.526,17.852L25.524,17.855L25.485,17.91L25.44,17.961L25.39,18.008L25.335,18.05L25.277,18.086L25.215,18.117L25.15,18.142L25.082,18.161L25.013,18.174L24.943,18.18L24.873,18.18L24.803,18.173L24.734,18.16L24.667,18.14L24.602,18.115L24.541,18.083L24.482,18.046L24.428,18.004L24.379,17.957L24.334,17.905L24.296,17.85L24.263,17.791L24.236,17.73L24.216,17.666L24.203,17.601L24.199,17.563L24.198,17.559L24.185,17.523L24.17,17.48L24.128,17.37L24.075,17.238L24.013,17.085L23.942,16.916L23.863,16.731L23.777,16.533L23.686,16.324L23.59,16.106L23.387,15.649L23.175,15.179L22.961,14.709L22.754,14.255L22.559,13.832L22.446,13.588L22.426,13.607L22.285,13.736L22.148,13.861L22.019,13.978L21.901,14.084L21.796,14.175L21.708,14.249L21.661,14.286L21.604,14.328L21.564,14.352L21.522,14.376L21.478,14.397L21.433,14.415L21.429,14.417L21.366,14.437L21.301,14.451L21.235,14.46L21.168,14.463L21.102,14.46L21.036,14.451L21.034,14.45L20.969,14.436L20.906,14.415L20.846,14.39L20.788,14.359L20.734,14.324L20.683,14.283L20.636,14.239L20.594,14.191L20.557,14.139L20.553,14.132L20.519,14.074L20.505,14.046L20.476,13.982L20.447,13.91L20.413,13.825L20.332,13.615L20.234,13.352L20.121,13.045L19.997,12.707L19.866,12.347L19.81,12.191L19.728,12.456L19.613,12.821L19.414,13.454L19.338,13.697L19.285,13.871L19.278,13.896L19.274,13.921L19.262,13.981L19.23,14.118L19.179,14.325L19.112,14.594L19.032,14.914L18.941,15.272L18.843,15.656L18.74,16.052L18.636,16.45L18.534,16.835L18.437,17.196L18.348,17.52L18.307,17.665L18.269,17.797L18.234,17.914L18.202,18.017L18.173,18.107L18.144,18.187L18.121,18.24L18.105,18.273L18.079,18.319L18.05,18.363L18.045,18.371L18.005,18.421L17.961,18.468L17.911,18.51L17.858,18.548L17.856,18.55L17.8,18.583L17.741,18.611L17.68,18.633L17.616,18.651L17.551,18.662L17.486,18.668L17.42,18.668L17.354,18.663L17.352,18.663L17.287,18.651L17.223,18.635L17.161,18.612L17.102,18.584L17.045,18.552L16.992,18.514L16.943,18.472L16.898,18.426L16.894,18.421L16.86,18.38L16.83,18.336L16.811,18.306L16.775,18.239L16.74,18.168L16.701,18.086L16.608,17.885L16.493,17.63L16.36,17.333L16.214,17.004L15.899,16.296L15.74,15.939L15.585,15.595L15.44,15.276L15.31,14.993L15.252,14.87L15.2,14.761L15.155,14.669L15.121,14.601L15.117,14.598L15.066,14.552L14.949,14.443L14.803,14.305L14.635,14.143L14.449,13.963L14.052,13.574L13.777,13.302L13.754,13.348L13.642,13.568L13.521,13.803L13.261,14.307L12.983,14.844L12.696,15.396L12.41,15.947L12.135,16.478L11.88,16.974L11.764,17.202L11.657,17.414L11.56,17.609L11.474,17.782L11.402,17.932L11.344,18.056L11.323,18.105L11.308,18.138L11.307,18.151L11.292,18.214L11.271,18.275L11.245,18.333L11.212,18.39L11.174,18.443L11.131,18.492L11.083,18.537L11.03,18.578L10.974,18.614L10.973,18.615L10.916,18.644L10.857,18.669L10.795,18.688L10.732,18.702L10.667,18.711L10.602,18.714L10.537,18.711L10.473,18.703L10.409,18.689L10.407,18.688L10.34,18.668L10.277,18.641L10.216,18.609L10.159,18.571L10.151,18.565L10.107,18.539L9.954,18.454L9.749,18.342L9.222,18.056L8.61,17.726L7.994,17.392L7.709,17.237L7.452,17.095L7.233,16.973L7.139,16.92L7.056,16.872L6.984,16.829L6.922,16.79L6.883,16.763L6.859,16.746L6.809,16.704L6.802,16.698L6.756,16.653L6.714,16.604L6.713,16.602L6.678,16.552L6.648,16.5L6.623,16.445L6.603,16.389L6.603,16.387L6.587,16.323L6.578,16.257L6.576,16.191L6.581,16.125L6.593,16.059L6.611,15.995L6.636,15.933L6.667,15.874L6.705,15.818L6.748,15.765L6.796,15.717L6.849,15.673L6.906,15.635L6.967,15.602L7.031,15.575L7.098,15.554L7.166,15.539L7.236,15.53L7.306,15.528L7.376,15.533L7.445,15.544ZM24.202,17.41L24.201,17.427L24.204,17.403L24.207,17.389L24.202,17.41ZM7.854,15.786L7.873,15.811L7.872,15.809L7.835,15.761L7.813,15.741L7.854,15.786ZM19.157,14.19L19.171,14.171L19.188,14.143L19.157,14.19ZM22.088,12.012L22.07,12.038L22.101,11.997L22.088,12.012ZM14.123,11.685L14.152,11.725L14.134,11.696L14.104,11.664L14.123,11.685Z" style="fill:rgb(133,197,167);"/>
    </g>
    <g transform="matrix(0.965268,0,0,1,0.417983,0.278457)">
        <rect x="3.711" y="3.722" width="24.864" height="23.961" style="fill:rgb(62,0,255);fill-opacity:0;stroke:rgb(254,252,255);stroke-width:1.53px;"/>
    </g>
</svg>
