<?xml version="1.0" encoding="UTF-8" standalone="no"?>
<!DOCTYPE svg PUBLIC "-//W3C//DTD SVG 1.1//EN" "http://www.w3.org/Graphics/SVG/1.1/DTD/svg11.dtd">
<svg width="100%" height="100%" viewBox="0 0 48 48" version="1.1" xmlns="http://www.w3.org/2000/svg" xmlns:xlink="http://www.w3.org/1999/xlink" xml:space="preserve" style="fill-rule:evenodd;clip-rule:evenodd;stroke-linecap:square;stroke-linejoin:round;">
    <g id="Layer.-1" transform="matrix(0.998053,0,0,1,0.0807971,0)">
        <g id="path1441" transform="matrix(0.620927,0,0,1.14286,9.21859,-3.42857)">
            <path d="M23.5,13.5L6,24L23.5,34.5L23.5,13.5ZM41.5,13.5L24,24L41.5,34.5L41.5,13.5Z" style="fill:none;stroke:url(#_Linear1);stroke-width:3px;"/>
        </g>
        <g id="path5515" transform="matrix(0.620927,0,0,1.14286,9.21859,-3.42857)">
            <path d="M23.5,13.5L6,24L23.5,34.5L23.5,13.5Z" style="fill:url(#_Radial2);"/>
        </g>
        <g id="use5517" transform="matrix(0.620927,0,0,1.14286,9.21859,-3.42857)">
            <path d="M41.5,13.5L24,24L41.5,34.5L41.5,13.5Z" style="fill:url(#_Radial3);"/>
        </g>
        <g id="path2915" transform="matrix(0.620927,0,0,1.14286,9.21859,-3.42857)">
            <path d="M41.5,13.5L40.313,14.219L41.5,14.094L41.5,13.5ZM23.5,13.75L23.032,13.781L19.063,16.156L23.5,15.75L23.5,13.75Z" style="fill:url(#_Linear4);"/>
        </g>
        <g id="path5521" transform="matrix(0.620927,0,0,1.14286,9.21859,-3.42857)">
            <path d="M23.5,13.5L6,24L23.5,34.5L23.5,13.5ZM41.5,13.5L24,24L41.5,34.5L41.5,13.5Z" style="fill:rgb(140,140,140);stroke:url(#_Linear5);stroke-width:1px;"/>
        </g>
        <g id="path5525" transform="matrix(0.620927,0,0,1.14286,9.21859,-3.42857)">
            <path d="M23,14.375L6.969,24L23,33.625L23,14.375ZM41,14.375L24.969,24L41,33.625L41,14.375ZM22,16.156L22,31.844L8.907,24L22,16.156ZM40,16.156L40,31.844L26.907,24L40,16.156Z" style="fill:white;"/>
        </g>
    </g>
    <defs>
        <linearGradient id="_Linear1" x1="0" y1="0" x2="1" y2="0" gradientUnits="userSpaceOnUse" gradientTransform="matrix(-0.725765,22.3414,-22.3414,-0.725765,24.4762,13.6586)"><stop offset="0" style="stop-color:black;stop-opacity:0.14902"/><stop offset="1" style="stop-color:white;stop-opacity:0.0980392"/></linearGradient>
        <radialGradient id="_Radial2" cx="0" cy="0" r="1" gradientUnits="userSpaceOnUse" gradientTransform="matrix(1.94827,-8.71739,18.6374,4.16536,20.5797,27.315)"><stop offset="0" style="stop-color:white;stop-opacity:1"/><stop offset="1" style="stop-color:rgb(211,215,207);stop-opacity:1"/></radialGradient>
        <radialGradient id="_Radial3" cx="0" cy="0" r="1" gradientUnits="userSpaceOnUse" gradientTransform="matrix(1.94827,-8.71739,18.6374,4.16536,38.5797,27.315)"><stop offset="0" style="stop-color:white;stop-opacity:1"/><stop offset="1" style="stop-color:rgb(211,215,207);stop-opacity:1"/></radialGradient>
        <linearGradient id="_Linear4" x1="0" y1="0" x2="1" y2="0" gradientUnits="userSpaceOnUse" gradientTransform="matrix(0.236923,2.1875,-2.1875,0.236923,4.43989,15.6875)"><stop offset="0" style="stop-color:black;stop-opacity:0.0666667"/><stop offset="1" style="stop-color:white;stop-opacity:0"/></linearGradient>
        <linearGradient id="_Linear5" x1="0" y1="0" x2="1" y2="0" gradientUnits="userSpaceOnUse" gradientTransform="matrix(-0.091538,-13.812,13.812,-0.091538,6.98891,35)"><stop offset="0" style="stop-color:rgb(173,176,168);stop-opacity:1"/><stop offset="1" style="stop-color:rgb(70,71,68);stop-opacity:1"/></linearGradient>
    </defs>
</svg>
