<?xml version="1.0" encoding="UTF-8" standalone="no"?>
<!DOCTYPE svg PUBLIC "-//W3C//DTD SVG 1.1//EN" "http://www.w3.org/Graphics/SVG/1.1/DTD/svg11.dtd">
<svg width="100%" height="100%" viewBox="0 0 48 48" version="1.1" xmlns="http://www.w3.org/2000/svg" xmlns:xlink="http://www.w3.org/1999/xlink" xml:space="preserve" style="fill-rule:evenodd;clip-rule:evenodd;stroke-linecap:round;stroke-linejoin:round;stroke-miterlimit:10;">
    <g id="Music" transform="matrix(0.239978,0,0,0.180378,10.6393,12.7291)">
        <path d="M101.315,14.212L101.296,6.86C102.009,-0.452 93.293,1.843 93.293,1.843L37.575,13.516C30.359,14.932 31.026,18.734 30.9,20.866C30.81,35.364 30.872,84.035 30.872,84.035C30.867,95.566 26.833,95.254 23.525,94.978C21.521,94.81 20.025,94.89 20.025,94.89C9.798,94.886 1.506,101.281 1.503,109.171C1.5,117.062 9.786,123.464 20.012,123.468C30.237,123.472 38.025,120.048 38.282,109.605L38.453,103.507L38.227,44.598C38.227,44.598 38.063,39.689 42.234,38.583L89.278,27.909L101.373,25.116L101.512,88.66L101.404,95.24C101.025,104.765 93.297,109.461 83.07,109.457C72.845,109.453 64.559,103.053 64.562,95.16C64.566,87.269 72.858,80.877 83.083,80.881C84.878,80.881 86.614,81.08 88.257,81.449L89.173,81.638C94.508,83.312 93.844,78.8 93.93,75.37C93.934,65.591 93.948,36.266 93.948,36.266" style="fill:none;stroke:black;stroke-width:3.01px;"/>
    </g>
</svg>
