<?xml version="1.0" encoding="UTF-8" standalone="no"?>
<!DOCTYPE svg PUBLIC "-//W3C//DTD SVG 1.1//EN" "http://www.w3.org/Graphics/SVG/1.1/DTD/svg11.dtd">
<svg width="100%" height="100%" viewBox="0 0 48 48" version="1.1" xmlns="http://www.w3.org/2000/svg" xmlns:xlink="http://www.w3.org/1999/xlink" xml:space="preserve" style="fill-rule:evenodd;clip-rule:evenodd;stroke-linejoin:round;stroke-miterlimit:1.41421;">
    <path d="M0,0L48,0L48,48L0,48L0,0Z" style="fill:none;"/>
    <path d="M24,10L24,2L14,12L24,22L24,14C30.63,14 36,19.37 36,26C36,32.63 30.63,38 24,38C17.37,38 12,32.63 12,26L8,26C8,34.84 15.16,42 24,42C32.84,42 40,34.84 40,26C40,17.16 32.84,10 24,10Z" style="fill:rgb(127,127,127);fill-rule:nonzero;"/>
</svg>
