<?xml version="1.0" ?><!DOCTYPE svg  PUBLIC '-//W3C//DTD SVG 1.1//EN'  'http://www.w3.org/Graphics/SVG/1.1/DTD/svg11.dtd'><svg height="56px" id="Capa_1" style="enable-background:new 0 0 88 56;" version="1.1" viewBox="0 0 88 56" width="88px" xml:space="preserve" xmlns="http://www.w3.org/2000/svg" xmlns:xlink="http://www.w3.org/1999/xlink"><g><path d="M0,28c0,1.396,1.398,2.395,1.398,2.395L38.71,55.146c2.862,1.91,5.21,0.504,5.21-3.123V3.975   c0-3.626-2.348-5.03-5.21-3.122L1.398,25.604C1.398,25.604,0,26.604,0,28z M45.379,28c0,1.396,1.396,2.395,1.396,2.395   l36.016,24.752C85.654,57.057,88,55.65,88,52.023V3.975c0-3.626-2.346-5.03-5.209-3.122L46.775,25.604   C46.775,25.604,45.379,26.604,45.379,28z"/></g><g/><g/><g/><g/><g/><g/><g/><g/><g/><g/><g/><g/><g/><g/><g/></svg>