<?xml version="1.0" encoding="UTF-8" standalone="no"?>
<!DOCTYPE svg PUBLIC "-//W3C//DTD SVG 1.1//EN" "http://www.w3.org/Graphics/SVG/1.1/DTD/svg11.dtd">
<svg width="100%" height="100%" viewBox="0 0 48 48" version="1.1" xmlns="http://www.w3.org/2000/svg" xmlns:xlink="http://www.w3.org/1999/xlink" xml:space="preserve" xmlns:serif="http://www.serif.com/" style="fill-rule:evenodd;clip-rule:evenodd;stroke-linecap:round;stroke-linejoin:round;stroke-miterlimit:1.5;">
    <g transform="matrix(1,0,0,1,-26,-26)">
        <g>
            <g transform="matrix(0.941176,0,0,0.888889,27.4118,28.6667)">
                <rect x="7" y="6" width="34" height="36" style="fill:rgb(110,110,110);fill-opacity:0;stroke:rgb(133,133,133);stroke-opacity:0;stroke-width:2.18px;"/>
            </g>
            <g transform="matrix(1.09091,0,0,9.1e-21,27.0909,38.5)">
                <path d="M10,15L32,14" style="fill:none;stroke:rgb(133,133,133);stroke-width:2.59px;"/>
            </g>
            <g transform="matrix(1.09091,0,0,9.1e-21,27.0909,43.05)">
                <path d="M10,15L32,14" style="fill:none;stroke:rgb(133,133,133);stroke-width:2.59px;"/>
            </g>
            <g transform="matrix(1.09091,0,0,9.1e-21,27.0909,47.6)">
                <path d="M10,15L32,14" style="fill:none;stroke:rgb(133,133,133);stroke-width:2.59px;"/>
            </g>
            <g transform="matrix(1.09091,0,0,9.1e-21,27.0909,52.15)">
                <path d="M10,15L32,14" style="fill:none;stroke:rgb(133,133,133);stroke-width:2.59px;"/>
            </g>
            <g transform="matrix(1.09091,0,0,9.1e-21,27.0909,56.7)">
                <path d="M10,15L32,14" style="fill:none;stroke:rgb(133,133,133);stroke-width:2.59px;"/>
            </g>
            <g transform="matrix(1.09091,0,0,9.1e-21,27.0909,61.7)">
                <path d="M10,15L32,14" style="fill:none;stroke:rgb(133,133,133);stroke-width:2.59px;"/>
            </g>
            <g transform="matrix(1.77988,0,0,1.63729,-17.6588,-3.48145)">
                <circle cx="37.5" cy="32.5" r="3.5" style="fill:rgb(110,110,110);fill-opacity:0;stroke:rgb(77,77,77);stroke-width:1.17px;"/>
            </g>
            <g transform="matrix(1.66845,0,0,2.16152,-13.0802,-20.7748)">
                <path d="M40.059,34.887L45,39" style="fill:none;stroke:rgb(77,77,77);stroke-width:1.04px;"/>
            </g>
        </g>
    </g>
</svg>
