<?xml version="1.0" encoding="UTF-8" standalone="no"?>
<!DOCTYPE svg PUBLIC "-//W3C//DTD SVG 1.1//EN" "http://www.w3.org/Graphics/SVG/1.1/DTD/svg11.dtd">
<svg width="100%" height="100%" viewBox="0 0 48 48" version="1.1" xmlns="http://www.w3.org/2000/svg" xmlns:xlink="http://www.w3.org/1999/xlink" xml:space="preserve" xmlns:serif="http://www.serif.com/" style="fill-rule:evenodd;clip-rule:evenodd;stroke-linecap:round;stroke-linejoin:round;stroke-miterlimit:1.5;">
    <g transform="matrix(1,0,0,1,-26,-26)">
        <g>
            <g transform="matrix(0.954545,0,0,9.1e-21,29.4545,38.5)">
                <path d="M10,15L32,14" style="fill:none;stroke:rgb(133,133,133);stroke-width:2.96px;"/>
            </g>
            <g transform="matrix(0.954545,0,0,9.1e-21,29.4545,43.05)">
                <path d="M10,15L32,14" style="fill:none;stroke:rgb(133,133,133);stroke-width:2.96px;"/>
            </g>
            <g transform="matrix(0.954545,0,0,9.1e-21,29.4545,47.6)">
                <path d="M10,15L32,14" style="fill:none;stroke:rgb(133,133,133);stroke-width:2.96px;"/>
            </g>
            <g transform="matrix(0.954545,0,0,9.1e-21,29.4545,52.15)">
                <path d="M10,15L32,14" style="fill:none;stroke:rgb(133,133,133);stroke-width:2.96px;"/>
            </g>
            <g transform="matrix(0.954545,0,0,9.1e-21,29.4545,56.7)">
                <path d="M10,15L32,14" style="fill:none;stroke:rgb(133,133,133);stroke-width:2.96px;"/>
            </g>
            <g transform="matrix(1.1,0,0,1.1,12.6,17.1)">
                <circle cx="37.5" cy="32.5" r="3.5" style="fill:rgb(110,110,110);fill-opacity:0;stroke:rgb(77,77,77);stroke-width:1.36px;"/>
            </g>
            <g transform="matrix(1.07976,0,0,1.58626,13.4107,0.135869)">
                <path d="M40.059,34.887L45,39" style="fill:none;stroke:rgb(77,77,77);stroke-width:1.11px;"/>
            </g>
        </g>
    </g>
</svg>
