<?xml version="1.0" encoding="UTF-8" standalone="no"?>
<!DOCTYPE svg PUBLIC "-//W3C//DTD SVG 1.1//EN" "http://www.w3.org/Graphics/SVG/1.1/DTD/svg11.dtd">
<svg width="100%" height="100%" viewBox="0 0 48 48" version="1.1" xmlns="http://www.w3.org/2000/svg" xmlns:xlink="http://www.w3.org/1999/xlink" xml:space="preserve" style="fill-rule:evenodd;clip-rule:evenodd;stroke-linecap:round;stroke-linejoin:round;stroke-miterlimit:1.5;">
    <g id="stop" transform="matrix(0.424649,0,0,0.333333,7.30141,8.66667)">
        <rect x="4" y="4" width="24" height="24" style="fill:rgb(251,0,251);"/>
    </g>
    <g id="stop1" transform="matrix(0.828803,0,0,0.333333,15.7935,8.70907)">
        <rect x="4" y="4" width="24" height="24" style="fill:rgb(162,121,158);"/>
    </g>
    <g id="stop2" transform="matrix(0.424648,0,0,0.333333,7.30141,28.6667)">
        <rect x="4" y="4" width="24" height="24" style="fill:rgb(191,179,191);"/>
    </g>
    <g id="stop11" transform="matrix(0.828802,0,0,0.333333,15.7935,28.7091)">
        <rect x="4" y="4" width="24" height="24" style="fill:rgb(162,121,158);"/>
    </g>
    <g transform="matrix(1.125,0,0,1,-3,-1)">
        <ellipse cx="24" cy="25" rx="8" ry="17" style="fill:rgb(126,126,126);fill-opacity:0;stroke:rgb(87,87,87);stroke-width:1.41px;"/>
    </g>
    <g transform="matrix(1,0,0,1.5,5.88418e-15,-12)">
        <path d="M10,22L15,26L20,22" style="fill:rgb(126,126,126);fill-opacity:0;stroke:rgb(87,87,87);stroke-width:1.57px;"/>
    </g>
</svg>
